<svg width="74" height="139" viewBox="0 0 74 139" fill="none" xmlns="http://www.w3.org/2000/svg">
<path d="M39.7481 11.8027C21.6618 11.8027 7 27.1321 7 46.0419C7 53.9458 9.2975 63.8084 13.2926 72.6114L15.5649 80.8288C13.8855 82.8375 10.3252 88.4984 9.51908 95.0723C8.51145 103.29 7 104.385 9.01527 106.577C10.6275 108.33 15.0611 96.3506 17.0763 90.1419C16.2366 93.0636 15.1618 100.879 17.5802 108.768C19.9985 116.657 21.9466 124.472 22.6183 127.394L22.1145 133.968L24.6336 137.803L28.6641 135.064L34.2061 123.559L49.3206 118.081L53.855 127.394L61.4122 136.707L63.4275 133.968L63.9313 114.246L67.9618 98.9071L71.4885 106.029L73 100.551L68.9695 84.1158L65.9466 80.8288V71.5158L70.4809 63.2984L72.4962 46.0419C72.4962 35.8169 69.217 24.1026 62.4198 17.8288C56.6466 12.5 48.0547 11.8027 39.7481 11.8027Z" fill="white"/>
<path d="M44.3837 11.6157C46.9348 8.20328 49.0412 5.06356 52.3329 2.12843L52.7075 2.25872C52.712 2.25194 52.7164 2.2453 52.7206 2.23877L52.7814 2.08881L52.6211 1.90572L52.8972 1.80273L52.7814 2.08881L52.7999 2.11003C52.7804 2.14479 52.7538 2.18789 52.7206 2.23877L52.7119 2.26025L52.7075 2.25872C51.8166 3.60849 46.6566 9.97598 45.4689 11.6237C48.5999 11.9683 56.0655 13.0531 57.986 15.2566C55.0887 15.7443 47.2517 10.6812 44.2797 13.6732C43.8777 14.8106 44.018 15.5933 43.3201 16.2938L42.9207 16.0942C42.9595 14.7645 43.2618 13.8091 43.6016 12.5288C42.13 12.464 39.6844 12.1276 38.5998 12.6178C37.5108 13.8116 37.9275 14.9485 37.1798 16.0258C36.7399 14.7236 36.7109 14.4621 36.6656 13.1019C33.5142 13.6141 32.4203 13.8294 29.3598 14.6975C29.8236 15.9948 30.3155 17.0254 30.2782 18.3741C29.5278 17.9127 28.8152 15.9728 28.469 15.147C23.9569 16.7217 19.3925 18.6067 16.6265 22.2608C16.6829 22.93 16.7824 22.9166 17.2807 23.462L17.0186 23.8039L15.9774 23.3656C14.5797 23.8522 12.445 27.3967 11.8682 28.6806C5.58387 42.6713 7.56304 57.4527 12.7772 71.4058C13.6453 73.7297 16.9883 76.7052 17.8867 79.0032L17.6897 79.2896C17.0148 78.7121 15.3216 76.0739 14.5 75.6554L15.2738 78.047C15.5 79.4609 15.7466 79.9292 16.0903 81.0312C16.2771 81.6299 13.9571 83.6934 13.6705 84.3121C11.5058 88.987 6.07515 102.076 9.24891 106.522L9.83647 106.622C11.6129 105.511 15.4714 95.1643 16.0338 92.8846L16.557 92.7657C17.529 93.898 16.6179 96.924 16.726 98.4215C16.907 100.938 16.7884 103.803 17.2989 106.313C18.2068 110.778 20.838 114.492 21.0395 119.223C21.1039 120.737 22.6982 123.519 22.8299 125.189C23.4407 127.951 21.6331 135.919 24.9908 137.499C28.0769 137.275 28.9826 133.526 29.9027 131.449C31.0303 128.902 33.1612 126.861 33.3226 124.078C34.3794 123.358 46.1871 118.13 48.5001 118.06C51.1159 117.981 53.4806 126.481 54.0054 128.146L54.3168 128.391C56.9566 130.487 58.5573 136.438 61.5433 136.096C63.9611 135.819 63.0417 117.118 63.6344 114.448C65.0827 107.921 67.7435 101.837 67.3246 95.3551C69.5113 102.807 65.7863 107.522 64.653 114.604C64.1231 117.915 64.5803 122.306 64.068 125.854C63.6605 128.677 65.7079 135.105 62.0999 137.134C58.4687 137.703 56.3288 133.472 55.7767 131.007C51.1192 127.283 52.2809 122.036 49.0001 119.223C44.7742 119.025 43.1334 122.014 39 122.409C38.1651 122.489 35.5944 124.564 34.6424 124.485C33.5381 127.436 33.3819 128.824 30.8633 131.059L30.6988 131.207C30.1437 133.754 28.8194 139.041 24.6937 138.794C20.7098 137.101 22.0743 127.528 21.628 124.287C21.4431 122.944 20.1653 121.449 19.7904 120.108C19.345 118.291 19.7199 116.043 19.3619 114.199C19.1435 113.073 17.5533 111.268 17.2491 110.212C16.219 106.635 15.5594 99.698 15.8534 96.1444L15.6563 96.5261C13.9338 99.9034 13.4046 106.164 10.2047 107.743C2.25103 107.959 11.5 83.8304 14.8753 81.2119C15.3328 80.8571 14.2172 75.32 13.5299 74.8221C8.94668 66.1686 6.52308 54.5549 6.67643 45.0591L6.6895 44.2748C7.0845 41.4723 7.52191 37.9586 8.40725 35.2596C5.50001 30.5323 1 25.0958 0 23.3656C1.5 24.5522 5.00001 27.2704 8.71107 34.4127C10.5474 29.3773 11.251 26.6703 14.9789 22.4374C10.8691 14.6975 7.22234 10.3698 3.41543 10.0251L3.19481 9.79419C6.14157 9.00191 13.2621 13.8956 15.3184 22.2399C19.5965 17.5903 21.5684 16.6909 28.0303 14.1732C26.5657 10.7345 24.0503 5.57737 22.9727 2.29238C25.5286 5.6496 27.4338 10.0825 29.0052 13.8956C31.5621 13.2049 34.0896 12.6351 36.6643 12.015L37.5028 11.8846C40.2733 12.0293 41.977 11.5501 44.3837 11.6157Z" fill="black"/>
<path d="M73.6972 10.8027L74 10.9884C73.5627 11.8741 63.8194 16.8388 62.3446 17.4273C70.4624 25.6511 72.135 30.9775 72.6696 42.5002C73.2215 54.4011 71.0976 62.7849 66.9909 73.7357C66.2791 75.6334 67.4011 77.4161 66.5287 80.324C68.8331 84.889 71.7866 88.8779 72.8023 94.1373C73.2749 96.5846 74.1924 106.459 70.8199 106.803C68.2462 105.331 68.1599 100.361 67.0545 97.6744C66.3698 96.0097 65.1413 93.706 65.4114 91.9676L65.7321 91.946C66.3833 92.8267 68.333 99.0971 68.7812 100.58C69.16 101.977 69.8447 105.629 71.5372 105.662C73.2065 103.632 72.6115 96.8389 71.9505 94.3595C71.3736 92.197 67.9623 82.8634 66.4839 81.9429L65.5452 82.338C64.495 81.0769 66.6244 78.2135 65.9143 76.5443C64.783 76.7977 65.273 78.4033 63.4137 78.2627C62.9647 76.6643 66.136 73.9061 66.8188 71.8313C70.1503 61.7119 72.2872 55.019 71.8745 44.1993C71.4138 32.1241 70.0658 26.4967 61.7014 18.1096C60.904 18.7975 60.5649 19.1826 59.5801 19.5498L59.334 19.3749C59.7838 18.443 60.4633 18.1301 61.3133 17.5507L58 15.1295C59.411 15.5415 60.812 16.2578 62.1595 16.8919C65.0409 15.6712 70.7463 12.3961 73.6972 10.8027Z" fill="#0E0E0E"/>
<path d="M37.0291 13.2256C37.0225 10.5553 36.8056 1.67681 37.665 0.225586C38.1705 4.0832 37.971 8.68534 37.9079 12.8172L37.0291 13.2256Z" fill="black"/>
<path d="M42.5833 61.3273C42.4338 61.4472 42.244 61.3055 42.136 61.1528C41.9485 61.0148 41.7458 60.8843 41.481 60.8794C40.8881 60.8684 40.7519 61.1623 40.0992 60.9865C39.4464 60.8108 38.7484 60.9148 38.4731 60.7409C38.1978 60.5669 38.1053 60.9444 37.6991 60.7922C37.293 60.6399 37.0306 60.649 36.6436 60.7144C36.4663 60.7444 36.1299 60.7449 35.7803 60.7157C35.6607 60.7094 35.5388 60.6636 35.4467 60.5912C35.295 60.4752 35.2367 60.3067 35.2595 60.2029C35.2927 60.0483 35.2669 59.9282 35.261 59.7718C35.253 59.6204 35.2859 59.4435 35.365 59.3414C35.4124 59.2783 35.4539 59.2235 35.4865 59.1758C35.5004 59.1557 35.4996 59.1287 35.4894 59.1061C35.4894 59.1061 35.4894 59.1061 35.4894 59.1061C35.4768 59.078 35.4484 59.0574 35.4187 59.0681C35.2769 59.1209 35.0524 59.2049 34.8069 59.4324C34.5816 59.6538 34.5666 59.8616 34.5897 60.0547C34.6244 60.2519 34.6662 60.4734 34.8861 60.8375C34.9437 60.9271 35.008 61.0074 35.0769 61.0794C35.2417 61.2503 35.4387 61.3776 35.6628 61.4484C35.9543 61.5636 36.2523 61.6506 36.6901 61.6393C37.4427 61.6201 37.5189 62.2183 38.6024 62.06C39.6859 61.9018 39.6987 62.5166 40.7139 62.761C41.0683 62.8463 41.4636 62.887 41.8542 62.9093C43.0247 63.0314 43.8947 62.2452 44.2317 61.8019C44.5378 61.4427 44.8057 60.8943 44.8129 60.2678C44.8264 59.7065 44.6129 59.0872 44.1832 58.6459C43.9205 58.3725 43.5944 58.1251 43.2103 57.9603C42.5739 57.6792 41.9035 57.3317 41.2225 57.1651C41.1215 57.1404 41.0163 57.1144 40.908 57.0875C39.9648 56.7958 38.809 57.0432 38.2229 57.4518C38.1059 57.5296 38.0018 57.6001 37.915 57.6611C37.3809 58.0363 37.2499 58.1257 36.6573 58.3142C36.3167 58.4225 35.8882 58.6611 35.5767 58.9738C35.4199 59.1311 35.5079 59.211 35.72 59.172C36.0301 59.1149 36.2375 58.9646 36.4375 59.0235C36.837 59.1414 37.0021 59.1812 37.2984 58.8722C37.5947 58.5633 37.9145 58.814 38.1083 58.6803C38.2424 58.5877 38.2399 58.4673 38.6038 58.2896C38.734 58.2259 38.9359 58.1609 39.2282 58.1667C39.7562 58.184 40.1031 58.3396 40.3478 58.474C40.62 58.6151 40.8331 58.7205 41.01 58.8108C41.3414 58.98 42.0413 59.1314 42.641 59.3693C42.7104 59.3964 42.773 59.4356 42.8225 59.4838C42.9914 59.6341 43.2064 59.9433 43.1881 60.2678C43.183 60.5175 43.0575 60.7153 42.9408 60.7841C42.6697 60.9143 42.8318 61.0895 42.5833 61.3273Z" fill="black"/>
<path d="M54.0697 29.1168C53.2315 29.1185 49.5299 29.4044 49.111 29.2946L49 29.0985C49.5762 28.0394 51.3952 28.3927 52.4758 28.3229C56.7268 28.0485 58.1945 29.389 60.4807 32.5972C60.7997 33.1462 60.8866 33.2539 60.9333 33.8837C59.7426 33.5264 59.9767 32.7556 59.0045 32.2546C58.2923 33.4802 59.6237 40.2208 57.3904 40.1423C57.2211 39.8703 57.238 39.7787 57.2052 39.4455L57.1951 39.3353C56.7879 39.0233 55.6414 39.2645 55.0718 39.1048C54.5568 38.9605 54.0773 38.7202 53.6004 38.4904C53.5658 38.9634 53.5156 39.4168 53.1862 39.7176C52.5713 39.4807 52.8174 38.7342 52.7219 38.5927C51.9738 37.484 51.3596 37.3868 50.5271 36.126L50.5804 36.1482C51.6416 36.6034 51.9192 36.7831 52.8818 37.4146C53.0325 35.2052 53.0418 30.7591 54.103 29.1778L54.0697 29.1168Z" fill="#030302"/>
<path d="M54.0703 29.1168C55.2489 28.959 57.5135 29.7501 58.166 30.7327L58.2018 31.0706L57.7428 31.4848C57.7139 32.1829 58.057 33.0828 58.0247 34.3972C57.5107 33.8352 54.3737 30.6353 54.3103 30.3316L54.4022 30.2399C54.6382 30.0024 54.7797 29.9142 54.8159 29.5933C54.5254 29.3221 54.4824 29.2994 54.1036 29.1778L54.0703 29.1168Z" fill="#F9F8FB"/>
<path d="M54.0516 31.0393C54.2968 31.1695 57.406 35.1218 57.8596 35.6386L57.7883 38.3562C56.3807 38.3816 55.5474 38.4391 54.1921 37.9422C53.288 37.3316 53.8831 35.2877 54.0479 34.3658C54.6492 34.732 55.4439 35.5007 56.1549 35.3807V35.1261C55.5882 34.317 54.8414 33.8759 53.9684 33.4428C53.9526 32.5433 53.9833 31.9325 54.0516 31.0393Z" fill="#F9F8FB"/>
<path d="M21.0766 31.2088C20.4237 31.191 20.5711 31.2851 20.0809 30.9597C19.073 28.0247 27.8067 25.5965 28.132 28.8144C27.4134 29.1059 26.6738 28.0808 25.9049 28.36C25.1242 30.042 26.7308 31.6858 26.5892 32.0757C26.4762 32.144 26.1069 32.3119 26.1413 32.4452C26.3209 33.1415 26.9168 36.9882 27.2107 37.302C27.7746 36.8489 27.914 36.2846 28.3378 36.0918C29.7055 38.7949 22.759 39.3349 21.1857 38.5122L21.1094 38.298C22.0961 37.3415 25.0102 38.4946 26.1433 37.5756C26.4807 36.7314 25.9927 36.1816 25.2704 35.854C24.3328 35.4288 23.2931 34.3512 22.4896 33.6625C22.744 34.8069 23.0427 35.6471 22.9584 36.8003L22.7966 36.9161C22.0931 36.1473 21.5249 33.05 21.5304 32.0683L21.3066 31.2609L21.0766 31.2088Z" fill="#030302"/>
<path d="M21.0765 31.209C20.8972 30.6053 20.7847 30.3823 20.9902 29.7993L21.1955 29.6257C21.7201 30.3483 21.565 31.1717 21.5303 32.0684L21.3064 31.2611L21.0765 31.209Z" fill="#ECEBEB"/>
<path d="M22.252 31.0542C23.4178 31.1673 24.035 31.3904 25.1201 31.7666C25.4244 32.7678 25.9403 34.3739 25.8976 35.4108C24.6255 34.6903 22.325 32.5647 22.252 31.0542Z" fill="#F9F8FB"/>
<path d="M23.3672 29.6342L23.3108 29.5578C23.0642 29.23 23.0055 29.1772 22.6798 28.9326L22.6278 28.6906L22.7571 28.5624L22.652 28.7218C22.9952 28.3988 24.3286 28.3166 24.8833 28.2051C24.9775 29.0767 25.1085 30.0329 25.1004 30.9034C24.5471 30.75 23.6779 30.4682 23.1327 30.4636C22.6039 30.3154 22.7392 30.4241 22.416 30.092C22.696 29.7398 22.8618 29.7877 23.3672 29.6342Z" fill="#F9F8FB"/>
<path d="M23.1327 30.4636C22.6039 30.3155 22.7392 30.4241 22.416 30.0921C22.696 29.7398 22.8618 29.7878 23.3672 29.6343L23.1327 30.4636Z" fill="#E1E0E0"/>
<path d="M29.1627 39.2859L29.4762 39.3873L29.594 39.7362L29.4089 40.0046C28.3678 40.5207 26.8953 40.6586 25.7369 40.8097L25.5502 40.8276L25.3867 40.6677L25.4541 40.4082C26.0719 39.8225 28.2174 39.4854 29.1627 39.2859Z" fill="#030302"/>
<path d="M39.4005 47.6439C39.3041 47.8607 39.5077 48.0629 39.4102 48.3285C39.3178 48.594 39.2065 48.6211 39.1727 48.9344C39.1339 49.2464 39.0254 49.5497 39.0345 49.693C39.0399 49.8338 38.9512 49.8398 38.9426 50.0386C38.9321 50.2373 38.9031 50.3566 38.8655 50.5274C38.8486 50.6082 38.8235 50.7638 38.8203 50.9273C38.8274 51.117 38.8604 51.3167 38.8852 51.4175C38.8981 51.471 38.91 51.5272 38.923 51.5825C38.9542 51.7222 39.001 51.8556 39.036 51.9446C39.051 51.9835 39.0629 52.014 39.0721 52.0374C39.0759 52.0473 39.0778 52.0519 39.0778 52.0519C39.0778 52.0519 39.0749 52.0448 39.0697 52.0322C39.0449 51.9706 39.0049 51.8799 38.9584 51.7718C38.9254 51.6946 38.9064 51.6423 38.8906 51.5915C38.8656 51.5096 38.8471 51.4326 38.8052 51.2537C38.7777 51.1347 38.7556 51.0344 38.7366 50.933C38.7183 50.7797 38.7116 50.6344 38.7287 50.4264C38.7685 50.0812 38.6476 49.9893 38.7399 49.503C38.8545 49.0212 38.6925 48.9493 38.6706 48.4537C38.6478 47.9542 38.8167 47.3534 38.829 47.0564C38.8356 46.7598 38.8185 46.3558 38.8941 45.943C38.9762 45.5313 38.8794 44.9939 39.0163 44.5465C39.0332 44.4936 39.0509 44.4379 39.0696 44.3803C39.2054 43.9533 39.4002 43.434 39.5365 43.1874C39.69 42.9078 39.7327 42.8423 39.7225 42.5406C39.7171 42.3668 39.7985 42.1485 39.9924 41.9958C40.0901 41.919 40.1926 41.9663 40.2185 42.0733C40.2561 42.2297 40.1786 42.3322 40.2875 42.4331C40.5042 42.6344 40.577 42.7118 40.3852 42.8562C40.1967 43.0028 40.4935 43.1528 40.4279 43.2469C40.3635 43.3417 40.1836 43.3051 40.1929 43.8606C40.1959 44.1579 40.1837 44.3806 40.1694 44.5565C40.1567 44.7105 40.1427 44.8249 40.1326 44.9219C40.108 45.1291 39.8861 45.536 39.8545 45.8751C39.8171 46.2137 39.6331 46.8843 39.6259 47.165C39.6152 47.4462 39.5017 47.4311 39.4005 47.6439Z" fill="black"/>
</svg>
